# Blender v2.79 (sub 0) OBJ File: 'Spruce.blend'
# www.blender.org
o SpruceBranches_Spruce.004
v -2.712708 -0.574544 0.086186
v -0.447246 1.918902 0.297955
v -0.453755 1.154164 -1.472921
v 0.509598 1.561848 1.934364
v -2.708690 -0.102531 1.179208
v -2.118106 -0.322912 2.189233
v 0.335391 0.028646 3.034154
v 0.104553 1.842965 0.437128
v -1.508360 1.113989 0.857868
v 1.513926 1.338476 -0.596834
v 1.330914 0.478586 2.774465
v 2.200809 0.167204 2.136282
v 0.965189 -0.095540 -2.381614
v 1.677422 1.396265 -0.009868
v -1.498594 1.465224 0.085411
v -0.015335 0.248853 -2.598491
v -0.995113 -0.052977 -2.322806
v 0.088810 1.954238 -0.361244
v 2.584063 -0.210743 1.513887
v 0.404564 2.374812 0.160809
v -0.462640 1.482106 1.831222
v 0.372236 2.007149 -1.889319
v 3.119318 0.340254 0.482874
v 3.099365 0.113324 -0.782508
v -2.523000 0.016556 -1.323602
v -0.464503 2.596351 0.050301
v 0.412883 1.778520 -1.603205
v -0.420747 2.200375 2.053803
v -3.064540 0.521338 -0.303024
v -3.037533 0.276933 0.933579
v -2.555639 -0.375158 2.671579
v -0.191455 2.991740 0.503495
v -1.986959 1.891007 -1.135927
v 2.363691 2.506911 1.102930
v -1.447418 0.304238 3.683464
v 0.129671 0.004991 4.053448
v 1.777606 0.545662 -1.819812
v 1.363691 2.056514 0.845621
v -1.643526 2.476114 -0.690681
v 1.007156 1.019171 -2.508481
v -0.078510 0.804648 -2.768050
v 0.115434 2.823677 -0.270136
v -1.449453 0.928087 -2.211628
v -0.309784 3.310873 -0.109717
v 1.143688 2.520612 -1.084965
v -1.189270 2.937520 1.556210
v -2.346565 1.415852 -1.609685
v -2.889402 1.185411 -0.581440
v 1.187128 1.273244 2.026423
v 1.920292 1.675588 1.547463
v 0.277625 3.264624 0.367814
v -0.910223 2.612760 1.143809
v 0.989962 2.989866 -0.994230
v 2.359961 1.506001 0.706781
v 2.776036 0.936072 -0.748066
v 2.384303 1.511001 -1.908030
v 0.245982 3.715232 -0.093384
v 0.880654 2.783754 1.785950
v -1.359043 3.348963 -1.539793
v 1.393648 1.284932 -2.800783
v 0.038168 2.530607 2.118555
v 0.760541 2.826478 2.056379
v -1.080482 3.658270 0.604508
v 1.119737 3.853836 -0.180737
v 1.396188 2.651316 1.633886
v 0.089884 4.137629 0.503772
v -0.269422 1.332885 -2.874846
v -1.509617 1.960646 -2.778272
v 1.821900 3.155202 -0.331535
v -2.052555 3.841741 1.053072
v -2.660815 1.756631 -2.020239
v -0.187422 4.172280 -0.175069
v -3.187496 1.926751 -0.456635
v -3.370536 2.556383 0.800188
v -0.049630 3.620141 -1.839575
v 0.367216 4.225613 2.340063
v -2.930210 2.300462 2.123123
v -0.346185 4.640249 0.196686
v 2.507105 2.554138 0.813565
v 2.707944 2.991365 -0.220627
v 0.064742 4.325672 1.868412
v -0.222665 4.684461 -1.515206
v 2.329711 2.775589 -1.274874
v 0.390135 5.034053 0.192850
v 0.996403 2.754984 -1.753096
v 0.285347 3.107131 -2.110548
v 1.238332 4.059431 0.364752
v -1.297371 4.366969 -0.148413
v -0.568686 2.944806 -2.069832
v 0.086304 4.629966 -0.214381
v -1.359887 2.756577 2.596153
v -0.010844 5.079007 0.428242
v -1.704270 4.364145 -0.284696
v 1.888342 4.570232 0.282499
v -0.314669 3.197804 3.036191
v 0.857548 2.883778 2.946238
v -1.828091 4.012961 -0.093302
v -1.792796 4.291423 0.657173
v -0.272705 5.742859 0.047127
v -0.329891 5.291707 -1.168766
v 0.426864 5.453425 1.101656
v -1.361006 4.112779 1.308049
v -1.929372 3.470820 -1.388200
v -2.496513 3.983226 -0.637703
v 0.693977 4.708527 -1.199010
v -0.537820 5.285263 1.705068
v -2.689662 3.826793 0.404256
v -0.224886 5.538709 0.016921
v -1.289772 4.740452 1.066212
v -0.903941 4.995255 1.540704
v -0.680730 5.571626 -0.449060
v 0.887103 5.715902 0.757112
v -0.322074 4.829502 1.810686
v -0.055619 5.984449 0.319697
v 2.057526 3.278194 -1.344127
v 1.432535 3.816363 -2.242633
v 0.227129 5.949428 -0.126549
v 1.239719 5.077507 1.329181
v -1.570098 5.714692 -0.913702
v 0.323249 3.671479 -2.728480
v -2.367028 2.094212 1.123915
v -1.876947 2.396936 1.986119
v -0.266249 4.150983 0.454738
v -1.060263 3.660520 -0.942177
v 1.094730 3.632178 1.291969
v -1.036921 2.076722 2.502877
v 0.584921 5.046528 1.473446
v 1.114266 5.253381 1.254477
v 0.291794 6.311988 0.266225
v -0.565833 5.976852 0.620990
v 0.879395 6.065236 -0.487125
v 1.476945 5.101079 0.789494
v 1.603341 5.391120 -0.084294
v 0.468718 6.412229 0.956240
v -0.298148 6.674484 -0.874878
v 1.533597 5.661344 -0.692191
v 1.130015 5.552990 -1.214497
v 0.355722 6.850036 -0.028654
v -1.522544 5.538607 0.294252
v -0.031165 6.879568 0.183665
v -0.211868 6.396404 -0.835023
v 0.630232 6.642566 1.083782
v -1.411010 5.836827 0.923007
v -1.002782 5.690544 1.478578
v -0.178352 5.557980 2.009242
v 0.244412 7.315129 0.256746
v -1.083751 6.776781 0.125945
v 1.535773 6.980481 -0.283015
v 0.641417 5.890260 2.089975
v 1.438472 5.683708 1.756823
v -0.451520 5.177674 -1.526418
v 0.988785 6.305900 -0.641141
v -0.607725 6.328236 0.877860
v -1.066838 5.401100 -1.189698
v -1.436919 5.191459 -0.588860
v -0.008133 6.667889 -0.095598
v -1.285195 6.349626 -0.530370
v 0.391426 7.264618 -0.920500
v 0.194813 7.569334 1.181691
v -1.503091 6.661611 0.072092
v -1.406548 6.537703 0.767146
v 0.038398 7.770085 0.055588
v 1.511805 6.428727 0.612971
v 1.719627 6.673681 0.074603
v 0.055522 7.362246 0.928307
v 0.242944 7.559727 -0.928645
v 1.627486 6.550617 -0.533178
v 0.392228 7.759112 0.056061
v 0.961147 6.999987 -0.962887
v 0.934534 7.826172 0.393912
v -0.643444 8.059414 -0.185304
v 0.543232 7.238041 -1.262920
v -0.012814 7.143948 -1.320391
v 0.257442 8.211860 -0.092192
v -0.599223 7.038942 1.156144
v -0.535816 7.832091 -0.278590
v 1.102840 8.025984 0.310527
v -0.157178 7.278162 1.455987
v 0.412189 7.158617 1.519759
v 0.180371 8.219667 0.207206
v 0.891753 7.702341 0.921903
v -0.195545 8.373522 0.580916
v 0.597758 8.498816 -0.581544
v 1.220420 7.883568 0.635740
v 1.381397 7.779675 0.204408
v 0.336948 8.667140 0.117284
v -0.590417 7.486671 -0.889715
v -0.972410 7.735381 -0.565300
v 0.105636 8.666872 -0.010038
v 0.724529 8.263920 -0.535644
v -0.209049 8.530863 0.829090
v -1.166640 7.651434 -0.047372
v -0.820078 8.114034 0.562340
v -0.611096 8.344596 0.964938
v -0.180835 8.758377 -0.537326
v 0.819787 8.994688 0.586663
v -0.202474 8.259890 1.256089
v 0.157751 9.131926 0.114948
v 1.327477 6.832479 0.580686
v 0.293954 8.192562 0.103314
v -0.076096 7.762619 0.884394
v 0.192840 8.080122 -0.850105
v 1.555880 7.097850 0.098588
v 1.493470 7.028449 -0.489882
v 0.136944 8.471042 0.778795
v 0.578406 8.589809 0.735907
v 0.256201 9.497011 -0.068405
v -0.459042 9.304587 0.001081
v 0.813659 9.296194 -0.518227
v 0.922481 8.465860 0.458268
v 1.218401 8.210424 0.117222
v 0.220893 9.053942 0.552139
v -0.111749 9.146494 -0.615404
v 1.265524 8.329550 -0.261363
v 1.013090 8.267560 -0.603409
v 0.297234 9.246917 -0.061233
v -0.600258 8.079049 -0.746212
v -0.860684 8.245662 -0.213199
v 0.232955 9.577925 -0.095303
v 0.654890 9.307978 -0.958874
v 0.392455 9.361910 0.866229
v -0.762236 8.112328 0.380277
vt 1.000000 1.000000
vt 0.500000 0.000000
vt 1.000000 0.000000
vt 0.000000 0.000000
vt 0.500000 1.000000
vt 0.000000 1.000000
vt 1.000000 1.000000
vt 0.500000 0.000000
vt 1.000000 0.000000
vt 0.000000 0.000000
vt 0.500000 1.000000
vt 0.000000 1.000000
vt 0.000000 0.000000
vt 0.500000 1.000000
vt 0.000000 1.000000
vt 0.500000 0.000000
vt 1.000000 1.000000
vt 0.500000 0.000000
vt 1.000000 0.000000
vt 0.000000 0.000000
vt 0.500000 1.000000
vt 0.000000 1.000000
vt 1.000000 1.000000
vt 0.500000 0.000000
vt 1.000000 0.000000
vt 0.000000 0.000000
vt 0.500000 1.000000
vt 0.000000 1.000000
vt 1.000000 1.000000
vt 0.500000 0.000000
vt 1.000000 0.000000
vt 0.000000 0.000000
vt 0.500000 1.000000
vt 0.000000 1.000000
vt 0.000000 0.000000
vt 0.500000 1.000000
vt 0.000000 1.000000
vt 0.500000 0.000000
vt 1.000000 1.000000
vt 0.500000 0.000000
vt 1.000000 0.000000
vt 0.000000 0.000000
vt 0.500000 1.000000
vt 0.000000 1.000000
vt 1.000000 1.000000
vt 0.500000 1.000000
vt 0.500000 0.000000
vt 1.000000 0.000000
vt 1.000000 1.000000
vt 0.500000 1.000000
vt 0.500000 0.000000
vt 1.000000 0.000000
vt 1.000000 1.000000
vt 0.500000 0.000000
vt 1.000000 0.000000
vt 0.000000 0.000000
vt 0.500000 1.000000
vt 0.000000 1.000000
vt 1.000000 1.000000
vt 0.500000 1.000000
vt 0.500000 0.000000
vt 1.000000 0.000000
vt 1.000000 1.000000
vt 0.500000 1.000000
vt 0.500000 0.000000
vt 1.000000 0.000000
vt 1.000000 1.000000
vt 0.500000 1.000000
vt 0.500000 0.000000
vt 1.000000 0.000000
vt 1.000000 1.000000
vt 0.500000 1.000000
vt 0.500000 0.000000
vt 1.000000 0.000000
vt 0.000000 0.000000
vt 0.500000 1.000000
vt 0.000000 1.000000
vt 0.500000 0.000000
vt 1.000000 1.000000
vt 0.500000 0.000000
vt 1.000000 0.000000
vt 0.000000 0.000000
vt 0.500000 1.000000
vt 0.000000 1.000000
vt 1.000000 1.000000
vt 0.500000 0.000000
vt 1.000000 0.000000
vt 0.000000 0.000000
vt 0.500000 1.000000
vt 0.000000 1.000000
vt 0.000000 0.000000
vt 0.500000 1.000000
vt 0.000000 1.000000
vt 0.500000 0.000000
vt 0.000000 0.000000
vt 0.500000 1.000000
vt 0.000000 1.000000
vt 0.500000 0.000000
vt 0.000000 0.000000
vt 0.500000 1.000000
vt 0.000000 1.000000
vt 0.500000 0.000000
vt 0.000000 0.000000
vt 0.500000 1.000000
vt 0.000000 1.000000
vt 0.500000 0.000000
vt 0.000000 0.000000
vt 0.500000 1.000000
vt 0.000000 1.000000
vt 0.500000 0.000000
vt 1.000000 1.000000
vt 0.500000 1.000000
vt 0.500000 0.000000
vt 1.000000 0.000000
vt 1.000000 1.000000
vt 0.500000 0.000000
vt 1.000000 0.000000
vt 0.000000 0.000000
vt 0.500000 1.000000
vt 0.000000 1.000000
vt 1.000000 1.000000
vt 0.500000 1.000000
vt 0.500000 0.000000
vt 1.000000 0.000000
vt 0.000000 0.000000
vt 0.500000 1.000000
vt 0.000000 1.000000
vt 0.500000 0.000000
vt 1.000000 1.000000
vt 0.500000 1.000000
vt 0.500000 0.000000
vt 1.000000 0.000000
vt 1.000000 1.000000
vt 1.000000 0.000000
vt 1.000000 1.000000
vt 1.000000 0.000000
vt 0.000000 0.000000
vt 0.000000 1.000000
vt 0.000000 0.000000
vt 0.000000 1.000000
vt 1.000000 1.000000
vt 0.500000 1.000000
vt 0.500000 0.000000
vt 1.000000 0.000000
vt 0.000000 0.000000
vt 0.000000 1.000000
vt 1.000000 1.000000
vt 0.500000 1.000000
vt 0.500000 0.000000
vt 1.000000 0.000000
vt 0.000000 0.000000
vt 0.000000 1.000000
vt 1.000000 1.000000
vt 0.500000 1.000000
vt 0.500000 0.000000
vt 1.000000 0.000000
vt 0.000000 0.000000
vt 0.000000 1.000000
vt 1.000000 1.000000
vt 0.500000 1.000000
vt 0.500000 0.000000
vt 1.000000 0.000000
vt 0.000000 0.000000
vt 0.000000 1.000000
vt 1.000000 1.000000
vt 0.500000 1.000000
vt 0.500000 0.000000
vt 1.000000 0.000000
vt 0.000000 0.000000
vt 0.000000 1.000000
vt 0.000000 0.000000
vt 0.000000 1.000000
vt 1.000000 1.000000
vt 0.500000 1.000000
vt 0.500000 0.000000
vt 1.000000 0.000000
vt 0.000000 0.000000
vt 0.000000 1.000000
vt 1.000000 1.000000
vt 0.500000 1.000000
vt 0.500000 0.000000
vt 1.000000 0.000000
vt 0.000000 0.000000
vt 0.000000 1.000000
vt 0.000000 0.000000
vt 0.000000 1.000000
vt 0.000000 0.000000
vt 0.000000 1.000000
vt 0.000000 0.000000
vt 0.000000 1.000000
vt 1.000000 1.000000
vt 1.000000 0.000000
vt 1.000000 1.000000
vt 1.000000 0.000000
vt 1.000000 1.000000
vt 1.000000 0.000000
vt 1.000000 1.000000
vt 0.500000 1.000000
vt 0.500000 0.000000
vt 1.000000 0.000000
vt 0.000000 0.000000
vt 0.000000 1.000000
vt 1.000000 1.000000
vt 1.000000 0.000000
vt 1.000000 1.000000
vt 1.000000 0.000000
vt 1.000000 1.000000
vt 1.000000 0.000000
vt 0.000000 0.000000
vt 0.000000 1.000000
vt 1.000000 1.000000
vt 0.500000 1.000000
vt 0.500000 0.000000
vt 1.000000 0.000000
vt 0.000000 0.000000
vt 0.000000 1.000000
vt 0.000000 0.000000
vt 0.000000 1.000000
vt 1.000000 1.000000
vt 1.000000 0.000000
vt 0.000000 0.000000
vt 0.000000 1.000000
vn -0.6981 0.6582 -0.2817
vn -0.4913 0.7458 0.4500
vn -0.2090 0.7928 0.5725
vn 0.4791 0.8440 0.2413
vn -0.3833 0.7431 -0.5486
vn 0.4383 0.6782 0.5899
vn 0.6043 0.7826 -0.1499
vn -0.4598 0.6745 -0.5776
vn -0.6288 0.7600 0.1640
vn -0.6812 0.6693 0.2966
vn -0.0060 0.7649 0.6441
vn -0.0034 0.7778 -0.6285
vn -0.1092 0.6864 -0.7190
vn -0.6124 0.7763 -0.1493
vn 0.1156 0.6663 0.7366
vn 0.7462 0.6614 0.0758
vn -0.5034 0.7275 0.4662
vn 0.2514 0.7708 0.5853
vn -0.7181 0.6628 -0.2122
vn 0.7738 0.6092 -0.1733
vn -0.6730 0.7287 0.1267
vn 0.0270 0.6933 0.7202
vn 0.4559 0.7333 -0.5044
vn -0.6609 0.7167 -0.2227
vn -0.3554 0.8060 0.4734
vn -0.3461 0.7030 0.6213
vn 0.4079 0.7616 0.5036
vn -0.6794 0.7140 -0.1693
vn -0.5679 0.7931 0.2203
vn -0.0617 0.7599 -0.6471
vn 0.0953 0.7823 0.6156
vn 0.6437 0.7632 0.0564
vn -0.1918 0.6567 -0.7293
vn 0.5315 0.6101 0.5876
vn 0.6469 0.7463 -0.1566
vn -0.0983 0.6404 0.7617
vn 0.5315 0.6731 -0.5142
vn -0.6486 0.5764 -0.4971
vn 0.3816 0.7265 -0.5715
vn 0.6729 0.6835 -0.2829
vn 0.6196 0.7664 0.1695
vn 0.3228 0.7683 -0.5528
vn -0.2255 0.6942 0.6836
vn 0.4928 0.7580 0.4272
vn 0.2783 0.6576 -0.7001
vn -0.4325 0.7836 -0.4460
vn -0.5684 0.6995 -0.4332
vn -0.4932 0.8087 0.3206
vn 0.6450 0.6508 0.4004
vn 0.5806 0.7313 -0.3580
vn 0.5708 0.6684 -0.4769
vn -0.1741 0.7588 -0.6277
vn -0.4766 0.7144 0.5123
vn -0.2744 0.6849 -0.6750
vn -0.5684 0.8225 0.0181
vn -0.6597 0.7384 0.1399
vn -0.0547 0.7941 0.6053
vn 0.1848 0.7428 -0.6435
vn -0.1417 0.7217 0.6776
vn 0.6337 0.7304 0.2550
vn 0.7490 0.6331 0.1955
vn -0.1249 0.7062 -0.6969
vn -0.4974 0.6837 -0.5340
vn 0.5393 0.6683 0.5123
vn 0.6158 0.7489 -0.2450
vn 0.6500 0.6547 -0.3859
vn -0.6205 0.6976 0.3582
vn 0.2140 0.6953 0.6861
vn -0.6184 0.7787 -0.1057
vn -0.7250 0.6885 -0.0180
vn -0.2222 0.8073 0.5467
vn 0.6103 0.6357 0.4726
vn 0.6887 0.6627 0.2942
vn -0.7575 0.5988 0.2602
s off
f 1/1/1 2/2/1 3/3/1
f 4/4/2 5/5/2 6/6/2
f 7/7/3 8/8/3 9/9/3
f 10/10/4 11/11/4 12/12/4
f 15/13/5 16/14/5 17/15/5
f 18/16/5 16/14/5 15/13/5
f 19/17/6 20/18/6 21/19/6
f 22/20/7 23/21/7 24/22/7
f 25/23/8 26/24/8 27/25/8
f 28/26/9 29/27/9 30/28/9
f 31/29/10 32/30/10 33/31/10
f 34/32/11 35/33/11 36/34/11
f 39/35/12 40/36/12 41/37/12
f 42/38/12 40/36/12 39/35/12
f 43/39/13 44/40/13 45/41/13
f 46/42/14 47/43/14 48/44/14
f 49/45/15 50/46/15 51/47/15
f 49/45/15 51/47/15 52/48/15
f 55/49/16 56/50/16 57/51/16
f 55/49/16 57/51/16 58/52/16
f 91/53/17 92/54/17 93/55/17
f 94/56/18 95/57/18 96/58/18
f 97/59/19 98/60/19 99/61/19
f 97/59/19 99/61/19 100/62/19
f 115/63/20 116/64/20 117/65/20
f 115/63/20 117/65/20 118/66/20
f 121/67/21 122/68/21 123/69/21
f 121/67/21 123/69/21 124/70/21
f 127/71/22 128/72/22 129/73/22
f 127/71/22 129/73/22 130/74/22
f 135/75/23 136/76/23 137/77/23
f 138/78/23 136/76/23 135/75/23
f 139/79/24 140/80/24 141/81/24
f 142/82/25 143/83/25 144/84/25
f 145/85/26 146/86/26 147/87/26
f 148/88/27 149/89/27 150/90/27
f 153/91/28 154/92/28 155/93/28
f 156/94/28 154/92/28 153/91/28
f 159/95/29 160/96/29 161/97/29
f 162/98/29 160/96/29 159/95/29
f 171/99/30 172/100/30 173/101/30
f 174/102/30 172/100/30 171/99/30
f 177/103/31 178/104/31 179/105/31
f 180/106/31 178/104/31 177/103/31
f 183/107/32 184/108/32 185/109/32
f 186/110/32 184/108/32 183/107/32
f 187/111/33 188/112/33 189/113/33
f 187/111/33 189/113/33 190/114/33
f 199/115/34 200/116/34 201/117/34
f 202/118/35 203/119/35 204/120/35
f 205/121/36 206/122/36 207/123/36
f 205/121/36 207/123/36 208/124/36
f 213/125/37 214/126/37 215/127/37
f 216/128/37 214/126/37 213/125/37
f 217/129/38 218/130/38 219/131/38
f 217/129/38 219/131/38 220/132/38
f 1/1/1 5/5/1 2/2/1
f 2/2/2 5/5/2 4/4/2
f 7/7/3 11/11/3 8/8/3
f 8/8/4 11/11/4 10/10/4
f 13/133/39 16/14/39 18/16/39
f 13/133/39 18/16/39 14/134/39
f 19/17/6 23/21/6 20/18/6
f 20/18/7 23/21/7 22/20/7
f 25/23/8 29/27/8 26/24/8
f 26/24/9 29/27/9 28/26/9
f 31/29/10 35/33/10 32/30/10
f 32/30/11 35/33/11 34/32/11
f 37/135/40 40/36/40 42/38/40
f 37/135/40 42/38/40 38/136/40
f 43/39/13 47/43/13 44/40/13
f 44/40/14 47/43/14 46/42/14
f 53/137/41 50/46/41 54/138/41
f 51/47/41 50/46/41 53/137/41
f 59/139/42 56/50/42 60/140/42
f 57/51/42 56/50/42 59/139/42
f 61/141/43 62/142/43 66/143/43
f 61/141/43 66/143/43 63/144/43
f 64/145/44 62/142/44 65/146/44
f 66/143/44 62/142/44 64/145/44
f 67/147/45 68/148/45 72/149/45
f 67/147/45 72/149/45 69/150/45
f 70/151/46 68/148/46 71/152/46
f 72/149/46 68/148/46 70/151/46
f 73/153/47 74/154/47 78/155/47
f 73/153/47 78/155/47 75/156/47
f 76/157/48 74/154/48 77/158/48
f 78/155/48 74/154/48 76/157/48
f 79/159/49 80/160/49 84/161/49
f 79/159/49 84/161/49 81/162/49
f 82/163/50 80/160/50 83/164/50
f 84/161/50 80/160/50 82/163/50
f 85/165/51 86/166/51 90/167/51
f 85/165/51 90/167/51 87/168/51
f 88/169/52 86/166/52 89/170/52
f 90/167/52 86/166/52 88/169/52
f 91/53/17 95/57/17 92/54/17
f 92/54/18 95/57/18 94/56/18
f 101/171/53 98/60/53 102/172/53
f 99/61/53 98/60/53 101/171/53
f 103/173/54 104/174/54 108/175/54
f 103/173/54 108/175/54 105/176/54
f 106/177/55 104/174/55 107/178/55
f 108/175/55 104/174/55 106/177/55
f 109/179/56 110/180/56 114/181/56
f 109/179/56 114/181/56 111/182/56
f 112/183/57 110/180/57 113/184/57
f 114/181/57 110/180/57 112/183/57
f 119/185/58 116/64/58 120/186/58
f 117/65/58 116/64/58 119/185/58
f 125/187/59 122/68/59 126/188/59
f 123/69/59 122/68/59 125/187/59
f 131/189/60 128/72/60 132/190/60
f 129/73/60 128/72/60 131/189/60
f 133/191/61 136/76/61 138/78/61
f 133/191/61 138/78/61 134/192/61
f 139/79/24 143/83/24 140/80/24
f 140/80/25 143/83/25 142/82/25
f 145/85/26 149/89/26 146/86/26
f 146/86/27 149/89/27 148/88/27
f 151/193/62 154/92/62 156/94/62
f 151/193/62 156/94/62 152/194/62
f 157/195/63 160/96/63 162/98/63
f 157/195/63 162/98/63 158/196/63
f 163/197/64 164/198/64 168/199/64
f 163/197/64 168/199/64 165/200/64
f 166/201/65 164/198/65 167/202/65
f 168/199/65 164/198/65 166/201/65
f 169/203/66 172/100/66 174/102/66
f 169/203/66 174/102/66 170/204/66
f 175/205/67 178/104/67 180/106/67
f 175/205/67 180/106/67 176/206/67
f 181/207/68 184/108/68 186/110/68
f 181/207/68 186/110/68 182/208/68
f 191/209/69 188/112/69 192/210/69
f 189/113/69 188/112/69 191/209/69
f 193/211/70 194/212/70 198/213/70
f 193/211/70 198/213/70 195/214/70
f 196/215/71 194/212/71 197/216/71
f 198/213/71 194/212/71 196/215/71
f 199/115/34 203/119/34 200/116/34
f 200/116/35 203/119/35 202/118/35
f 209/217/72 206/122/72 210/218/72
f 207/123/72 206/122/72 209/217/72
f 211/219/73 214/126/73 216/128/73
f 211/219/73 216/128/73 212/220/73
f 221/221/74 218/130/74 222/222/74
f 219/131/74 218/130/74 221/221/74
