# Blender v2.79 (sub 0) OBJ File: 'campfire.blend'
# www.blender.org
o Plane.001
v 0.000000 0.050000 -0.000000
v 0.000000 0.050000 -0.100000
v -0.899999 0.000000 0.000000
v -0.899999 -0.000000 -0.100000
v -0.899999 0.100000 -0.200000
v 0.000000 0.100000 -0.150000
v -0.899999 0.200000 -0.200000
v 0.000000 0.200000 -0.150000
v -0.899999 0.300000 -0.100000
v 0.000000 0.250000 -0.100000
v -0.899999 0.300000 0.000000
v 0.000000 0.250000 0.000000
v -0.899999 0.200000 0.100000
v 0.000000 0.200000 0.050000
v -0.899999 0.100000 0.100000
v 0.000000 0.100000 0.050000
v 0.899999 -0.000000 -0.000000
v 0.899999 0.000000 -0.100000
v 0.899999 0.100000 -0.200000
v 0.899999 0.200000 -0.200000
v 0.899999 0.300000 -0.100000
v 0.899999 0.300000 0.000000
v 0.899999 0.200000 0.100000
v 0.899999 0.100000 0.100000
v -0.456808 0.458048 -0.677519
v -0.527519 0.458048 -0.606808
v 0.167054 0.273407 -0.053657
v 0.096343 0.273407 0.017054
v -0.579928 0.554641 -0.517796
v 0.070139 0.321704 0.061560
v -0.561627 0.651233 -0.499495
v 0.088440 0.418296 0.079861
v -0.472615 0.747826 -0.551904
v 0.132946 0.466593 0.053657
v -0.401904 0.747826 -0.622615
v 0.203657 0.466593 -0.017054
v -0.349495 0.651233 -0.711627
v 0.229861 0.418296 -0.061560
v -0.367796 0.554641 -0.729928
v 0.211560 0.321704 -0.079861
v 0.772615 -0.007826 0.551904
v 0.701904 -0.007826 0.622615
v 0.649495 0.088767 0.711627
v 0.667796 0.185359 0.729928
v 0.756808 0.281952 0.677519
v 0.827519 0.281952 0.606808
v 0.879928 0.185359 0.517796
v 0.861627 0.088767 0.499495
v 0.210834 0.861508 -0.772228
v 0.304803 0.844407 -0.742608
v 0.398772 0.913909 -0.662988
v 0.398772 1.000511 -0.612988
v 0.304803 1.104215 -0.592608
v 0.210834 1.121316 -0.622228
v 0.116864 1.051814 -0.701848
v 0.116864 0.965212 -0.751848
v -0.096985 0.481948 -0.014810
v -0.003015 0.464847 0.014810
v 0.043969 0.499598 0.054620
v 0.043969 0.586200 0.104620
v -0.003015 0.638052 0.114810
v -0.096985 0.655153 0.085190
v -0.143969 0.620402 0.045380
v -0.143969 0.533800 -0.004620
v -0.310834 -0.001316 0.722228
v -0.404803 0.015785 0.692608
v -0.216864 0.068186 0.801848
v -0.216864 0.154788 0.851848
v -0.310834 0.258492 0.872228
v -0.404803 0.275593 0.842608
v -0.498772 0.206091 0.762988
v -0.498772 0.119489 0.712988
v 0.700292 0.420734 0.593096
v 0.789938 0.408840 0.550409
v 0.301800 0.263869 -0.200061
v 0.391446 0.251975 -0.242747
v 0.880164 0.493583 0.482015
v 0.436559 0.294347 -0.276945
v 0.880745 0.590220 0.456307
v 0.437140 0.390984 -0.302653
v 0.791680 0.698752 0.473286
v 0.392607 0.445250 -0.294163
v 0.702034 0.710646 0.515973
v 0.302961 0.457144 -0.251476
v 0.611807 0.625903 0.584367
v 0.257848 0.414772 -0.217279
v 0.611227 0.529265 0.610075
v 0.257268 0.318135 -0.191571
v -0.097272 0.010368 -0.967510
v -0.007626 -0.001527 -1.010196
v 0.082600 0.083217 -1.078591
v 0.083181 0.179854 -1.104299
v -0.005885 0.288385 -1.087320
v -0.095530 0.300280 -1.044633
v -0.185757 0.215537 -0.976239
v -0.186337 0.118899 -0.950531
vt 0.000000 1.000000
vt 0.281250 1.000000
vt 0.281250 0.833333
vt 0.000000 0.833333
vt 0.000000 0.750000
vt 0.000000 1.000000
vt 0.281250 1.000000
vt 0.281250 0.750000
vt 0.281250 0.833333
vt 0.281250 0.666667
vt 0.000000 0.666667
vt 0.000000 0.833333
vt 0.000000 0.750000
vt 0.000000 1.000000
vt 0.281250 1.000000
vt 0.281250 0.750000
vt 0.000000 0.833333
vt 0.000000 1.000000
vt 0.281250 1.000000
vt 0.281250 0.833333
vt 0.000000 0.750000
vt 0.000000 1.000000
vt 0.281250 1.000000
vt 0.281250 0.750000
vt 0.000000 0.666667
vt 0.000000 0.833333
vt 0.281250 0.833333
vt 0.281250 0.666667
vt 0.000000 0.750000
vt 0.000000 1.000000
vt 0.281250 1.000000
vt 0.281250 0.750000
vt 0.000000 1.000000
vt 0.281250 1.000000
vt 0.281250 0.750000
vt 0.000000 0.750000
vt 0.000000 0.833333
vt 0.281250 0.833333
vt 0.281250 0.666667
vt 0.000000 0.666667
vt 0.000000 0.750000
vt 0.000000 1.000000
vt 0.281250 1.000000
vt 0.000000 1.000000
vt 0.281250 1.000000
vt 0.281250 0.750000
vt 0.000000 0.750000
vt 0.000000 0.833333
vt 0.281250 0.833333
vt 0.281250 0.666667
vt 0.000000 0.666667
vt 0.000000 0.750000
vt 0.000000 1.000000
vt 0.281250 1.000000
vt 0.000000 1.000000
vt 0.281250 0.833333
vt 0.000000 0.833333
vt 0.093750 0.500000
vt 0.187500 0.500000
vt 0.187500 0.333333
vt 0.093750 0.333333
vt 0.125000 0.166667
vt 0.093750 0.333333
vt 0.187500 0.333333
vt 0.156250 0.166667
vt 0.156250 0.666667
vt 0.187500 0.500000
vt 0.093750 0.500000
vt 0.125000 0.666667
vt 0.000000 0.500000
vt 0.093750 0.500000
vt 0.093750 0.333333
vt 0.000000 0.333333
vt 0.062500 0.666667
vt 0.093750 0.500000
vt 0.000000 0.500000
vt 0.031250 0.666667
vt 0.031250 0.166667
vt 0.000000 0.333333
vt 0.093750 0.333333
vt 0.062500 0.166667
vt 0.000000 1.000000
vt 0.281250 0.833333
vt 0.000000 0.833333
vt 0.000000 1.000000
vt 0.000000 0.833333
vt 0.281250 0.833333
vt 0.281250 1.000000
vt 0.000000 0.750000
vt 0.281250 0.750000
vt 0.281250 1.000000
vt 0.000000 1.000000
vt 0.000000 0.666667
vt 0.281250 0.666667
vt 0.281250 0.833333
vt 0.000000 0.833333
vt 0.000000 0.750000
vt 0.281250 0.750000
vt 0.281250 1.000000
vt 0.000000 1.000000
vt 0.000000 0.833333
vt 0.281250 0.833333
vt 0.281250 1.000000
vt 0.000000 1.000000
vt 0.000000 0.750000
vt 0.281250 0.750000
vt 0.281250 1.000000
vt 0.000000 1.000000
vt 0.000000 0.666667
vt 0.281250 0.666667
vt 0.281250 0.833333
vt 0.000000 0.833333
vt 0.000000 0.750000
vt 0.281250 0.750000
vt 0.281250 1.000000
vt 0.000000 1.000000
vt 0.000000 1.000000
vt 0.000000 0.750000
vt 0.281250 0.750000
vt 0.281250 1.000000
vt 0.000000 0.833333
vt 0.000000 0.666667
vt 0.281250 0.666667
vt 0.281250 0.833333
vt 0.000000 1.000000
vt 0.000000 0.750000
vt 0.281250 0.750000
vt 0.281250 1.000000
vt 0.000000 1.000000
vt 0.000000 0.781250
vt 0.281250 0.833333
vt 0.281250 1.000000
vt 0.000000 1.000000
vt 0.000000 0.781250
vt 0.281250 0.750000
vt 0.281250 1.000000
vt 0.000000 0.833333
vt 0.000000 0.666667
vt 0.281250 0.666667
vt 0.281250 0.833333
vt 0.000000 1.000000
vt 0.000000 0.750000
vt 0.281250 0.750000
vt 0.281250 1.000000
vt 0.000000 1.000000
vt 0.000000 0.833333
vt 0.281250 0.833333
vt 0.281250 1.000000
vt 0.093750 0.333333
vt 0.093750 0.500000
vt 0.000000 0.500000
vt 0.000000 0.333333
vt 0.062500 0.666667
vt 0.031250 0.666667
vt 0.000000 0.500000
vt 0.093750 0.500000
vt 0.031250 0.166667
vt 0.062500 0.166667
vt 0.093750 0.333333
vt 0.000000 0.333333
vt 0.000000 0.500000
vt 0.000000 0.333333
vt 0.093750 0.333333
vt 0.093750 0.500000
vt 0.031250 0.666667
vt 0.062500 0.666667
vt 0.093750 0.500000
vt 0.000000 0.500000
vt 0.031250 0.166667
vt 0.062500 0.166667
vt 0.000000 1.000000
vt 0.281250 1.000000
vt 0.281250 0.750000
vt 0.000000 0.750000
vt 0.000000 0.833333
vt 0.281250 0.833333
vt 0.281250 0.666667
vt 0.000000 0.666667
vt 0.000000 1.000000
vt 0.281250 1.000000
vt 0.281250 0.750000
vt 0.000000 0.750000
vt 0.000000 1.000000
vt 0.281250 1.000000
vt 0.281250 0.833333
vt 0.000000 0.833333
vt 0.000000 1.000000
vt 0.281250 1.000000
vt 0.281250 0.750000
vt 0.000000 0.750000
vt 0.281250 0.666667
vt 0.000000 0.666667
vt 0.000000 0.833333
vt 0.281250 0.833333
vt 0.000000 1.000000
vt 0.281250 1.000000
vt 0.281250 0.750000
vt 0.000000 0.750000
vt 0.000000 1.000000
vt 0.281250 1.000000
vt 0.281250 0.833333
vt 0.000000 0.833333
vt 0.093750 0.500000
vt 0.187500 0.500000
vt 0.187500 0.333333
vt 0.093750 0.333333
vt 0.125000 0.666667
vt 0.093750 0.500000
vt 0.187500 0.500000
vt 0.156250 0.666667
vt 0.125000 0.166667
vt 0.093750 0.333333
vt 0.187500 0.333333
vt 0.156250 0.166667
vt 0.000000 0.750000
vt 0.000000 1.000000
vt 0.281250 1.000000
vt 0.000000 0.833333
vt 0.281250 0.833333
vt 0.281250 0.666667
vt 0.000000 0.666667
vt 0.000000 1.000000
vt 0.281250 1.000000
vt 0.281250 0.750000
vt 0.000000 0.750000
vt 0.000000 1.000000
vt 0.281250 1.000000
vt 0.281250 0.833333
vt 0.000000 0.833333
vt 0.000000 1.000000
vt 0.281250 1.000000
vt 0.281250 0.750000
vt 0.000000 0.750000
vt 0.281250 0.666667
vt 0.000000 0.666667
vt 0.000000 0.833333
vt 0.281250 0.833333
vt 0.000000 1.000000
vt 0.281250 1.000000
vt 0.281250 0.750000
vt 0.000000 0.750000
vt 0.000000 1.000000
vt 0.000000 0.833333
vt 0.281250 0.833333
vt 0.281250 1.000000
vt 0.000000 0.500000
vt 0.093750 0.500000
vt 0.093750 0.333333
vt 0.000000 0.333333
vt 0.031250 0.166667
vt 0.000000 0.333333
vt 0.093750 0.333333
vt 0.062500 0.166667
vt 0.062500 0.666667
vt 0.093750 0.500000
vt 0.000000 0.500000
vt 0.031250 0.666667
vt 0.000000 1.000000
vt 0.000000 0.833333
vt 0.281250 0.833333
vt 0.281250 1.000000
vt 0.000000 0.750000
vt 0.281250 0.750000
vt 0.281250 1.000000
vt 0.000000 1.000000
vt 0.000000 0.666667
vt 0.281250 0.666667
vt 0.281250 0.833333
vt 0.000000 0.833333
vt 0.000000 0.750000
vt 0.281250 0.750000
vt 0.281250 1.000000
vt 0.000000 1.000000
vt 0.000000 0.833333
vt 0.281250 0.833333
vt 0.281250 1.000000
vt 0.000000 1.000000
vt 0.000000 0.750000
vt 0.281250 0.750000
vt 0.281250 1.000000
vt 0.000000 1.000000
vt 0.000000 0.666667
vt 0.281250 0.666667
vt 0.281250 0.833333
vt 0.000000 0.833333
vt 0.000000 0.750000
vt 0.281250 0.750000
vt 0.281250 1.000000
vt 0.000000 1.000000
vt 0.000000 1.000000
vt 0.000000 0.750000
vt 0.281250 0.750000
vt 0.281250 1.000000
vt 0.000000 0.833333
vt 0.000000 0.666667
vt 0.281250 0.666667
vt 0.281250 0.833333
vt 0.000000 1.000000
vt 0.000000 0.750000
vt 0.281250 0.750000
vt 0.281250 1.000000
vt 0.000000 1.000000
vt 0.000000 0.781250
vt 0.281250 0.833333
vt 0.281250 1.000000
vt 0.000000 1.000000
vt 0.000000 0.781250
vt 0.281250 0.750000
vt 0.281250 1.000000
vt 0.000000 0.833333
vt 0.000000 0.666667
vt 0.281250 0.666667
vt 0.281250 0.833333
vt 0.000000 1.000000
vt 0.000000 0.750000
vt 0.281250 0.750000
vt 0.281250 1.000000
vt 0.000000 1.000000
vt 0.000000 0.833333
vt 0.281250 0.833333
vt 0.281250 1.000000
vt 0.093750 0.333333
vt 0.093750 0.500000
vt 0.000000 0.500000
vt 0.000000 0.333333
vt 0.062500 0.666667
vt 0.031250 0.666667
vt 0.000000 0.500000
vt 0.093750 0.500000
vt 0.031250 0.166667
vt 0.062500 0.166667
vt 0.093750 0.333333
vt 0.000000 0.333333
vt 0.000000 0.500000
vt 0.000000 0.333333
vt 0.093750 0.333333
vt 0.093750 0.500000
vt 0.031250 0.666667
vt 0.062500 0.666667
vt 0.093750 0.500000
vt 0.000000 0.500000
vt 0.031250 0.166667
vt 0.062500 0.166667
vn 0.0555 -0.9985 0.0000
vn 0.0393 -0.7066 -0.7066
vn 0.0555 0.0000 -0.9985
vn 0.0393 0.7066 -0.7066
vn 0.0555 0.9985 0.0000
vn 0.0393 0.7066 0.7066
vn 0.0555 0.0000 0.9985
vn 0.0393 -0.7066 0.7066
vn -0.0393 -0.7066 0.7066
vn -0.0555 0.0000 0.9985
vn -0.0393 0.7066 0.7066
vn -0.0393 0.7066 -0.7066
vn -0.0555 0.0000 -0.9985
vn -0.0393 -0.7066 -0.7066
vn -0.0555 -0.9985 -0.0000
vn 1.0000 0.0000 0.0000
vn -1.0000 0.0000 0.0000
vn -0.0555 0.9985 0.0000
vn -0.1448 -0.9788 -0.1448
vn -0.6021 -0.6926 0.3971
vn -0.6681 -0.0144 0.7439
vn -0.3435 0.6723 0.6557
vn 0.2206 0.9501 0.2206
vn 0.6557 0.6723 -0.3435
vn 0.7439 -0.0144 -0.6681
vn 0.3971 -0.6926 -0.6021
vn 0.3435 -0.6723 -0.6557
vn 0.6681 0.0144 -0.7439
vn 0.6021 0.6926 -0.3971
vn 0.1448 0.9788 0.1448
vn -0.3971 0.6926 0.6021
vn -0.7439 0.0144 0.6681
vn -0.6557 -0.6723 0.3435
vn -0.2206 -0.9501 -0.2206
vn -0.6830 0.2588 -0.6830
vn 0.6830 -0.2588 0.6830
vn -0.6774 -0.5095 -0.5306
vn -0.9572 0.1447 -0.2506
vn -0.6774 0.7143 0.1759
vn -0.0190 0.8386 0.5444
vn 0.6505 0.4726 0.5945
vn 0.9193 -0.1968 0.3409
vn 0.6505 -0.7512 -0.1121
vn -0.0190 -0.8908 -0.4541
vn 0.3420 0.4698 -0.8138
vn -0.6505 -0.4726 -0.5945
vn -0.9193 0.1968 -0.3409
vn -0.6505 0.7512 0.1121
vn 0.0190 0.8908 0.4541
vn 0.6774 0.5095 0.5306
vn 0.9572 -0.1447 0.2506
vn 0.6774 -0.7143 -0.1759
vn -0.3420 -0.4698 0.8138
vn -0.0304 -0.9775 0.2086
vn 0.6119 -0.7758 -0.1540
vn 0.8705 -0.1314 -0.4743
vn 0.6201 0.5898 -0.5173
vn -0.0188 0.9522 -0.3048
vn -0.6467 0.7579 0.0859
vn -0.9197 0.1061 0.3781
vn -0.6549 -0.6077 0.4492
vn -0.6201 -0.5898 0.5173
vn -0.8705 0.1314 0.4743
vn -0.6119 0.7758 0.1540
vn 0.0304 0.9775 -0.2086
vn 0.6549 0.6077 -0.4492
vn 0.9197 -0.1061 -0.3781
vn 0.6467 -0.7579 -0.0859
vn 0.0188 -0.9522 0.3048
vn 0.4431 0.2280 0.8670
vn -0.4431 -0.2280 -0.8670
s off
f 4/1/1 2/2/1 1/3/1 3/4/1
f 4/5/2 5/6/2 6/7/2 2/8/2
f 5/9/3 7/10/3 8/11/3 6/12/3
f 7/13/4 9/14/4 10/15/4 8/16/4
f 9/17/5 11/18/5 12/19/5 10/20/5
f 11/21/6 13/22/6 14/23/6 12/24/6
f 13/25/7 15/26/7 16/27/7 14/28/7
f 15/29/8 3/30/8 1/31/8 16/32/8
f 1/33/9 17/34/9 24/35/9 16/36/9
f 16/37/10 24/38/10 23/39/10 14/40/10
f 14/41/11 23/42/11 22/43/11 12/24/11
f 10/44/12 21/45/12 20/46/12 8/47/12
f 8/48/13 20/49/13 19/50/13 6/51/13
f 6/52/14 19/53/14 18/54/14 2/8/14
f 2/55/15 18/54/15 17/56/15 1/57/15
f 24/58/16 19/59/16 20/60/16 23/61/16
f 18/62/16 19/63/16 24/64/16 17/65/16
f 22/66/16 23/67/16 20/68/16 21/69/16
f 5/70/17 15/71/17 13/72/17 7/73/17
f 9/74/17 7/75/17 13/76/17 11/77/17
f 3/78/17 15/79/17 5/80/17 4/81/17
f 21/82/18 10/15/18 12/83/18 22/84/18
f 26/85/19 25/86/19 27/87/19 28/88/19
f 26/89/20 28/90/20 30/91/20 29/92/20
f 29/93/21 30/94/21 32/95/21 31/96/21
f 31/97/22 32/98/22 34/99/22 33/100/22
f 33/101/23 34/102/23 36/103/23 35/104/23
f 35/105/24 36/106/24 38/107/24 37/108/24
f 37/109/25 38/110/25 40/111/25 39/112/25
f 39/113/26 40/114/26 27/115/26 25/116/26
f 27/117/27 40/118/27 48/119/27 41/120/27
f 40/121/28 38/122/28 47/123/28 48/124/28
f 38/125/29 36/126/29 46/127/29 47/128/29
f 36/129/30 34/130/30 45/131/30 46/132/30
f 34/133/31 32/134/31 44/135/31 45/136/31
f 32/137/32 30/138/32 43/139/32 44/140/32
f 30/141/33 28/142/33 42/143/33 43/144/33
f 28/145/34 27/146/34 41/147/34 42/148/34
f 37/149/35 39/150/35 29/151/35 31/152/35
f 33/153/35 35/154/35 37/155/35 31/156/35
f 25/157/35 26/158/35 29/159/35 39/160/35
f 44/161/36 43/162/36 48/163/36 47/164/36
f 46/165/36 45/166/36 44/167/36 47/168/36
f 42/169/36 41/170/36 48/163/36 43/162/36
f 49/171/37 57/172/37 64/173/37 56/174/37
f 56/175/38 64/176/38 63/177/38 55/178/38
f 55/179/39 63/180/39 62/181/39 54/182/39
f 54/183/40 62/184/40 61/185/40 53/186/40
f 53/187/41 61/188/41 60/189/41 52/190/41
f 52/191/42 60/192/42 59/193/42 51/194/42
f 51/195/43 59/196/43 58/197/43 50/198/43
f 50/199/44 58/200/44 57/201/44 49/202/44
f 51/203/45 56/204/45 55/205/45 52/206/45
f 53/207/45 52/208/45 55/209/45 54/210/45
f 49/211/45 56/212/45 51/213/45 50/214/45
f 57/215/46 66/216/46 72/217/46 64/173/46
f 64/218/47 72/219/47 71/220/47 63/221/47
f 63/222/48 71/223/48 70/224/48 62/225/48
f 62/226/49 70/227/49 69/228/49 61/229/49
f 61/230/50 69/231/50 68/232/50 60/233/50
f 60/234/51 68/235/51 67/236/51 59/237/51
f 59/238/52 67/239/52 65/240/52 58/241/52
f 58/242/40 57/243/40 66/244/40 65/245/40
f 72/246/53 67/247/53 68/248/53 71/249/53
f 65/250/53 67/251/53 72/252/53 66/253/53
f 70/254/53 71/255/53 68/256/53 69/257/53
f 74/258/54 73/259/54 75/260/54 76/261/54
f 74/262/55 76/263/55 78/264/55 77/265/55
f 77/266/56 78/267/56 80/268/56 79/269/56
f 79/270/57 80/271/57 82/272/57 81/273/57
f 81/274/58 82/275/58 84/276/58 83/277/58
f 83/278/59 84/279/59 86/280/59 85/281/59
f 85/282/60 86/283/60 88/284/60 87/285/60
f 87/286/61 88/287/61 75/288/61 73/289/61
f 75/290/62 88/291/62 96/292/62 89/293/62
f 88/294/63 86/295/63 95/296/63 96/297/63
f 86/298/64 84/299/64 94/300/64 95/301/64
f 84/302/65 82/303/65 93/304/65 94/305/65
f 82/306/66 80/307/66 92/308/66 93/309/66
f 80/310/67 78/311/67 91/312/67 92/313/67
f 78/314/68 76/315/68 90/316/68 91/317/68
f 76/318/69 75/319/69 89/320/69 90/321/69
f 85/322/70 87/323/70 77/324/70 79/325/70
f 81/326/70 83/327/70 85/328/70 79/329/70
f 73/330/70 74/331/70 77/332/70 87/333/70
f 92/334/71 91/335/71 96/336/71 95/337/71
f 94/338/71 93/339/71 92/340/71 95/341/71
f 90/342/71 89/343/71 96/336/71 91/335/71
