# Blender v2.79 (sub 0) OBJ File: ''
# www.blender.org
o StoneHatchet_Cube.004
v -0.030790 0.317181 -0.070228
v -0.057411 0.316246 -0.006121
v -0.059561 0.493767 0.017350
v -0.034485 0.478210 -0.058857
v 0.034869 0.296078 0.030873
v 0.048335 0.498370 0.032847
v 0.001055 0.469704 0.220924
v -0.003555 0.325139 0.250424
v -0.024978 0.457065 -0.118665
v 0.024548 0.459296 -0.112628
v 0.022090 0.333134 -0.117419
v -0.030248 0.352407 -0.124761
v 0.040418 0.322025 -0.067359
v 0.043794 0.478210 -0.070228
v 0.045589 0.550236 -0.051969
v 0.051978 -0.073014 -0.069231
v 0.045589 -0.784627 -0.051969
v -0.012348 -0.763803 -0.077497
v -0.014365 -0.077991 -0.094357
v -0.012348 0.567498 -0.077497
v 0.010788 -0.095746 0.046194
v 0.008490 0.553499 0.057599
v -0.075222 0.526452 0.010897
v -0.058903 -0.108368 -0.009413
v -0.075222 -0.806098 0.010897
v 0.066543 0.532973 0.035897
v 0.008490 -0.805775 0.057599
v 0.066543 -0.805452 0.035897
v 0.050377 -0.121573 0.003168
vt 0.839151 0.357869
vt 0.905071 0.560324
vt 0.919285 0.359038
vt 0.792908 0.332659
vt 0.555345 0.549691
vt 0.518470 0.368984
vt 0.766284 0.224181
vt 0.697788 0.090570
vt 0.704377 0.221392
vt 0.663834 0.839151
vt 0.786121 0.915699
vt 0.779185 0.792908
vt 0.736917 0.555345
vt 0.796018 0.790442
vt 0.661148 0.809812
vt 0.851334 0.901651
vt 0.966685 0.855408
vt 0.918655 0.580970
vt 0.692492 0.905071
vt 0.790341 0.919285
vt 0.766284 0.972285
vt 0.416667 -0.666667
vt 0.416667 0.166667
vt 0.500000 0.166667
vt 0.083333 0.000000
vt 0.000000 0.833333
vt 0.000000 0.000000
vt 0.166667 0.833333
vt 0.333333 0.000000
vt 0.166667 0.000000
vt 0.000000 0.083333
vt 0.083333 0.166667
vt 0.166667 0.166667
vt 0.083333 0.000000
vt 0.166667 0.083333
vt 0.166667 0.166667
vt 0.083333 0.000000
vt 0.166667 0.083333
vt 0.166667 0.833333
vt 0.166667 0.000000
vt 0.250000 0.000000
vt 0.250000 0.833333
vt 0.000000 0.083333
vt 0.083333 0.166667
vt 0.166667 1.000000
vt 0.250000 1.000000
vt 0.083333 0.083333
vt 0.000000 1.000000
vt 0.166667 1.000000
vt 0.250000 0.166667
vt 0.166667 0.083333
vt 0.987451 0.403070
vt 0.790442 0.585524
vt 0.915699 0.365092
vt 0.919285 0.560324
vt 0.972285 0.536681
vt 0.978274 0.378979
vt 0.763211 0.978274
vt 0.697111 0.919285
vt 0.697788 0.987451
vt 0.809812 0.579769
vt 0.763211 0.066479
vt 0.704377 0.979831
vt 0.416667 1.000000
vt 0.500000 1.000000
vt 0.500000 -0.666667
vt 0.083333 0.833333
vt 0.250000 0.833333
vt 0.083333 1.000000
vt 0.250000 0.166667
vt 0.333333 1.000000
vt 0.979831 0.533892
vn -0.9235 0.0059 -0.3834
vn 0.9851 0.0037 0.1719
vn -0.9766 0.0725 0.2025
vn 0.1185 0.0518 -0.9916
vn -0.1058 -0.9599 -0.2595
vn -0.0616 0.9889 0.1352
vn -0.2451 -0.9658 0.0849
vn -0.0277 0.9813 -0.1907
vn -0.0560 0.9210 -0.3854
vn 0.3555 -0.0219 -0.9344
vn 0.3589 -0.0203 -0.9332
vn 0.3551 -0.0239 -0.9345
vn -0.6186 -0.0410 0.7846
vn -0.6162 -0.0413 0.7865
vn -0.8845 -0.0078 -0.4665
vn -0.8859 -0.0102 -0.4638
vn -0.8849 -0.0049 -0.4658
vn -0.0983 -0.8687 -0.4855
vn 0.3633 0.9268 0.0954
vn -0.0743 -0.9742 -0.2132
vn 0.7190 -0.0524 0.6930
vn 0.7190 -0.0508 0.6932
vn 0.9733 0.0163 -0.2289
vn 0.9733 0.0184 -0.2288
vn 0.0922 -0.9830 -0.1585
vn 0.0631 0.8873 0.4569
vn -0.2480 0.9622 -0.1126
vn 0.9990 0.0239 0.0390
vn 0.9989 0.0255 0.0392
vn 0.9989 0.0242 0.0408
vn -0.4870 0.0368 0.8726
vn -0.4878 0.0339 0.8723
vn -0.8147 -0.0005 -0.5799
vn -0.8154 0.0022 -0.5789
vn -0.9995 -0.0213 -0.0237
vn 0.9990 -0.0223 -0.0396
vn 0.9387 -0.0052 -0.3448
vn -0.2265 -0.8171 -0.5301
vn -0.9476 0.0306 -0.3180
vn 0.9700 -0.0669 0.2337
vn -0.9588 -0.0486 0.2798
vn 0.1513 0.0346 -0.9879
vn 0.0673 -0.9976 0.0134
vn -0.0125 0.9789 -0.2039
vn -0.0018 0.9427 -0.3336
vn 0.4087 0.0226 -0.9124
vn 0.4071 0.0261 -0.9130
vn 0.3521 0.0295 -0.9355
vn 0.3502 0.0296 -0.9362
vn 0.3511 0.0333 -0.9357
vn 0.3953 -0.0279 -0.9181
vn 0.3953 -0.0258 -0.9182
vn -0.4829 -0.0171 0.8755
vn -0.8186 0.0176 -0.5741
vn -0.8199 0.0207 -0.5721
vn 0.3454 -0.0153 0.9383
vn 0.9997 -0.0250 0.0054
vn 0.9997 -0.0240 0.0041
vn 0.9997 -0.0230 0.0060
vn 0.3501 0.0139 0.9366
vn 0.9719 -0.0165 -0.2349
vn 0.9718 -0.0144 -0.2352
vn -0.6252 0.0146 0.7803
vn -0.6255 0.0116 0.7802
vn -0.8823 -0.0126 -0.4706
vn -0.8828 -0.0178 -0.4695
vn -0.8835 -0.0141 -0.4683
vn -0.9823 0.0598 -0.1773
vn 0.9970 -0.0667 0.0387
vn 0.9148 -0.0272 -0.4031
vn 0.0756 -0.9672 -0.2423
vn 0.7485 0.0498 0.6612
vn 0.7496 0.0493 0.6601
s off
f 2/1/1 4/2/1 1/3/1
f 5/4/2 7/5/2 8/6/2
f 7/5/3 2/1/3 8/6/3
f 10/7/4 12/8/4 9/9/4
f 2/10/5 13/11/5 5/12/5
f 7/13/6 6/14/6 3/15/6
f 2/16/7 5/17/7 8/18/7
f 4/19/8 6/14/8 14/20/8
f 10/21/9 4/19/9 14/20/9
f 18/22/10 19/23/11 16/24/12
f 21/25/13 23/26/13 24/27/14
f 23/28/15 19/29/16 24/30/17
f 25/31/18 18/32/18 17/33/18
f 22/34/19 26/35/19 15/36/19
f 27/37/20 17/33/20 28/38/20
f 26/39/21 21/25/21 29/40/22
f 26/39/23 16/41/24 15/42/23
f 27/37/25 25/31/25 17/33/25
f 23/43/26 15/36/26 20/44/26
f 23/43/27 22/34/27 15/36/27
f 29/45/28 28/38/29 16/46/30
f 27/47/31 24/48/32 25/31/31
f 24/49/33 18/50/34 25/51/34
f 4/2/35 12/52/35 1/3/35
f 6/53/36 13/54/36 14/55/36
f 10/56/37 13/54/37 11/57/37
f 11/58/38 1/59/38 12/60/38
f 2/1/39 3/61/39 4/2/39
f 5/4/40 6/53/40 7/5/40
f 7/5/41 3/61/41 2/1/41
f 10/7/42 11/62/42 12/8/42
f 2/10/43 1/59/43 13/11/43
f 4/19/44 3/15/44 6/14/44
f 10/21/45 9/63/45 4/19/45
f 20/64/46 15/65/46 19/23/47
f 15/65/48 16/24/49 19/23/50
f 16/24/51 17/66/52 18/22/52
f 21/25/53 22/67/53 23/26/53
f 23/28/54 20/68/54 19/29/55
f 26/39/56 22/67/56 21/25/56
f 26/39/57 29/40/58 16/41/59
f 28/38/60 21/69/60 27/47/60
f 16/46/61 28/38/62 17/70/62
f 27/47/63 21/69/63 24/48/64
f 24/49/65 19/71/66 18/50/67
f 4/2/68 9/72/68 12/52/68
f 6/53/69 5/4/69 13/54/69
f 10/56/70 14/55/70 13/54/70
f 11/58/71 13/11/71 1/59/71
f 29/45/72 21/69/73 28/38/73
