# Blender v2.79 (sub 0) OBJ File: 'BerryBush.blend'
# www.blender.org
o BushLOD2_Bush.001
v -1.940645 2.484859 0.677773
v 1.130928 3.019795 -0.042837
v -1.477950 -0.660658 0.314952
v 1.593624 -0.125721 -0.405657
v 0.002752 3.111934 0.744081
v 0.020508 2.197583 -2.322456
v -0.467682 0.077924 1.646009
v -0.449926 -0.836427 -1.420527
v -0.733014 2.552013 1.830279
v 1.261890 2.896155 -0.648012
v -1.035229 -0.561226 1.154698
v 0.959675 -0.217084 -1.323593
v 1.280084 2.571690 1.465536
v -1.107808 2.962723 -0.628519
v 1.181640 -0.590832 0.987240
v -1.206251 -0.199799 -1.106815
v -1.413842 1.977125 1.605036
v -1.525147 1.326717 -1.526190
v 1.697272 1.229488 1.649744
v 1.585968 0.579079 -1.481483
vt 0.000000 0.000000
vt 0.000000 1.000000
vt 1.000000 0.000000
vt 1.000000 1.000000
vt 0.000000 0.000000
vt 0.000000 1.000000
vt 1.000000 0.000000
vt 1.000000 1.000000
vt 0.000000 0.000000
vt 0.000000 1.000000
vt 1.000000 0.000000
vt 1.000000 1.000000
vt 0.000000 0.000000
vt 0.000000 1.000000
vt 1.000000 0.000000
vt 1.000000 1.000000
vt 0.000000 0.000000
vt 0.000000 1.000000
vt 1.000000 0.000000
vt 1.000000 1.000000
vn -0.2403 0.0763 -0.9677
vn -0.9891 0.1393 -0.0473
vn -0.7762 0.2048 -0.5963
vn -0.6650 -0.0914 0.7412
vn -0.2315 -0.9508 0.2057
s off
f 1/1/1 2/2/1 3/3/1
f 3/3/1 2/2/1 4/4/1
f 5/5/2 6/6/2 7/7/2
f 7/7/2 6/6/2 8/8/2
f 9/9/3 10/10/3 11/11/3
f 11/11/3 10/10/3 12/12/3
f 13/13/4 14/14/4 15/15/4
f 15/15/4 14/14/4 16/16/4
f 17/17/5 18/18/5 19/19/5
f 19/19/5 18/18/5 20/20/5
