# Blender v2.79 (sub 0) OBJ File: ''
# www.blender.org
o Boulder_Cube.001
v -0.337380 1.528404 1.400396
v 0.481858 1.923852 -0.163298
v -0.787056 1.562038 -0.066710
v 0.945932 -2.007180 1.441262
v 0.545198 0.495776 2.134390
v -0.905814 0.157646 2.660686
v -1.679068 -2.007180 1.441262
v -2.737180 0.026460 2.275320
v -1.786902 -2.261382 -0.181014
v 1.162620 1.528404 -1.599604
v 1.259116 0.462674 -2.299308
v -0.537020 0.511246 -2.466060
v 2.226582 0.071188 1.285828
v 0.945932 -2.007180 -1.708738
v 1.533246 -2.055412 -1.514804
v -1.154068 -2.007180 -1.708738
v -0.200722 -2.095258 -1.896364
v -0.104068 -2.357180 -0.133738
v -2.587380 0.778404 2.150396
v -1.605522 1.323704 1.922628
v -2.212134 1.141154 0.419684
v -0.465578 -2.197152 1.705644
v -2.862232 0.150690 -0.164774
v -1.087380 0.778404 -1.599604
v 0.043004 1.335798 -1.719728
v -1.616122 -0.002114 -2.161730
v 1.995932 -2.007180 0.391260
v 2.155168 -2.102492 -0.420490
v 2.868168 0.018952 0.351024
v 1.542488 -2.060792 0.994150
v 1.995932 -2.007180 -1.183738
v 2.186672 0.455188 -1.872488
v 2.942644 0.030136 -0.933506
v 1.378574 1.460336 0.766354
v 2.662620 0.778404 -0.099604
v 2.063774 1.365622 -0.911706
vt 0.754610 1.733756
vt -0.893833 2.549528
vt -0.150789 1.618566
vt 1.856290 -0.372176
vt 1.380696 1.161594
vt 0.987305 0.588533
vt 0.887675 -0.878533
vt 0.593554 0.197442
vt 0.200384 -1.528674
vt -1.483416 1.546734
vt -1.570609 0.771502
vt -1.038373 0.409411
vt 2.094714 1.111212
vt -1.910187 -0.644026
vt -2.072134 -0.445261
vt -1.032574 -1.231715
vt -1.516316 -1.043127
vt -2.718324 -1.525815
vt 0.534397 0.527031
vt 0.588128 1.008035
vt 0.116804 0.683994
vt 1.377475 -0.750971
vt -0.011886 -0.033159
vt -0.719643 0.540571
vt -1.075268 1.214526
vt -0.746103 -0.071381
vt -2.673358 -0.178478
vt -2.434137 -0.226121
vt -2.559525 1.055779
vt 2.326643 -0.178478
vt 2.440475 1.055779
vt 2.098147 -0.276568
vt 2.281676 -1.525815
vt -2.208084 -0.265530
vt -1.848563 0.956311
vt -2.203511 0.931306
vt 2.058847 2.255197
vt 4.106167 2.549528
vt 2.621062 1.453745
vt -2.378938 1.453745
vt -1.953679 1.688649
vt 3.046321 1.688649
vn -0.2655 0.9586 0.1033
vn 0.3738 -0.1915 0.9075
vn -0.8552 -0.5004 0.1353
vn 0.0919 0.5523 -0.8286
vn 0.4057 -0.1830 0.8955
vn 0.2839 -0.2569 -0.9238
vn -0.1183 -0.9831 -0.1396
vn -0.4692 0.8792 0.0826
vn -0.2578 -0.4784 0.8394
vn -0.8186 0.5714 -0.0577
vn -0.4072 0.6991 -0.5877
vn 0.8974 -0.3819 0.2209
vn 0.7704 -0.3207 0.5509
vn -0.0606 -0.9855 0.1584
vn 0.6992 -0.2423 -0.6726
vn 0.1544 0.9356 0.3175
vn 0.1537 -0.9813 0.1156
vn 0.1570 -0.9871 0.0303
vn -0.5136 -0.8580 -0.0000
vn -0.0070 -0.9752 -0.2214
vn -0.4450 0.8297 -0.3370
vn -0.2830 0.9209 -0.2681
vn -0.1273 0.9392 -0.3189
vn -0.0774 0.4997 0.8628
vn 0.1496 0.5913 0.7924
vn 0.1874 0.6705 0.7179
vn -0.8351 -0.3696 -0.4074
vn -0.9130 -0.4072 0.0261
vn -0.9770 0.2047 0.0605
vn -0.2085 -0.2344 -0.9495
vn 0.0851 -0.2023 -0.9756
vn 0.1750 -0.2499 -0.9523
vn 0.2715 0.7009 0.6596
vn 0.4828 0.5497 0.6817
vn 0.6443 0.5798 0.4987
vn 0.5796 -0.2608 -0.7720
vn 0.4051 -0.2315 -0.8845
vn 0.3567 0.5351 -0.7658
vn -0.3756 0.8530 -0.3625
vn -0.2838 0.9589 -0.0019
vn -0.1335 0.9890 0.0636
vn -0.2155 0.2017 0.9555
vn -0.1617 -0.3967 0.9036
vn 0.2166 -0.3319 0.9181
vn -0.8196 -0.2992 -0.4885
vn -0.6143 0.6592 -0.4338
vn -0.5641 0.6989 -0.4398
vn -0.1504 -0.2507 -0.9563
vn -0.4839 0.7494 -0.4518
vn -0.0400 0.6859 -0.7266
vn 0.9545 0.2927 0.0579
vn 0.9408 -0.3350 0.0516
vn 0.8923 -0.3859 -0.2343
vn 0.5582 -0.2857 0.7790
vn 0.7719 -0.3226 0.5478
vn 0.7347 0.4821 0.4773
vn 0.8150 0.5398 -0.2107
vn 0.7675 0.5114 -0.3864
vn 0.5330 0.6472 -0.5451
vn 0.2734 0.9527 -0.1327
vn 0.3729 0.9224 0.1002
vn 0.5533 0.8133 0.1800
vn 0.1003 -0.9833 -0.1516
vn -0.0507 -0.9816 -0.1843
vn -0.1657 -0.9847 0.0531
vn 0.0502 -0.9815 0.1847
vn 0.1644 -0.9864 0.0000
vn 0.1394 -0.9889 -0.0508
s off
f 1/1/1 2/2/1 3/3/1
f 4/4/2 5/5/2 6/6/2
f 7/7/3 8/8/3 9/9/3
f 10/10/4 11/11/4 12/12/4
f 4/4/5 13/13/5 5/5/5
f 14/14/6 11/11/6 15/15/6
f 16/16/7 17/17/7 18/18/7
f 19/19/8 20/20/8 21/21/8
f 7/7/9 22/22/9 8/8/9
f 19/19/10 21/21/10 23/23/10
f 24/24/11 25/25/11 26/26/11
f 27/27/12 28/28/12 29/29/12
f 27/30/13 29/31/13 30/32/13
f 7/7/14 9/9/14 18/33/14
f 31/34/15 32/35/15 33/36/15
f 1/1/16 34/37/16 2/38/16
f 4/4/17 22/22/17 18/33/17
f 27/30/18 30/32/18 18/33/18
f 31/34/19 28/28/19 27/27/19
f 18/18/20 14/14/20 15/15/20
f 3/3/21 25/25/21 24/24/21
f 3/3/22 2/2/22 25/25/22
f 2/2/23 10/10/23 25/25/23
f 6/6/24 20/20/24 19/19/24
f 6/6/25 5/5/25 20/20/25
f 5/5/26 1/1/26 20/20/26
f 9/9/27 23/23/27 16/16/27
f 9/9/28 8/8/28 23/23/28
f 8/8/29 19/19/29 23/23/29
f 12/12/30 17/17/30 16/16/30
f 12/12/31 11/11/31 17/17/31
f 11/11/32 14/14/32 17/17/32
f 5/5/33 34/37/33 1/1/33
f 5/5/34 13/13/34 34/37/34
f 13/13/35 35/39/35 34/37/35
f 15/15/36 32/35/36 31/34/36
f 15/15/37 11/11/37 32/35/37
f 11/11/38 10/10/38 32/35/38
f 21/21/39 3/3/39 24/24/39
f 21/21/40 20/20/40 3/3/40
f 20/20/41 1/1/41 3/3/41
f 8/8/42 6/6/42 19/19/42
f 8/8/43 22/22/43 6/6/43
f 22/22/44 4/4/44 6/6/44
f 23/23/45 26/26/45 16/16/45
f 23/23/46 21/21/46 26/26/46
f 21/21/47 24/24/47 26/26/47
f 26/26/48 12/12/48 16/16/48
f 26/26/49 25/25/49 12/12/49
f 25/25/50 10/10/50 12/12/50
f 29/29/51 33/36/51 35/40/51
f 29/29/52 28/28/52 33/36/52
f 28/28/53 31/34/53 33/36/53
f 30/32/54 13/13/54 4/4/54
f 30/32/55 29/31/55 13/13/55
f 29/31/56 35/39/56 13/13/56
f 33/36/57 36/41/57 35/40/57
f 33/36/58 32/35/58 36/41/58
f 32/35/59 10/10/59 36/41/59
f 2/2/60 36/41/60 10/10/60
f 2/38/61 34/37/61 36/42/61
f 34/37/62 35/39/62 36/42/62
f 17/17/63 14/14/63 18/18/63
f 9/9/64 16/16/64 18/33/64
f 22/22/65 7/7/65 18/33/65
f 30/32/66 4/4/66 18/33/66
f 18/18/67 31/34/67 27/27/67
f 31/34/68 18/18/68 15/15/68
